<svg width="100%" height="100%" id="svg" viewBox="0 0 1440 590" xmlns="http://www.w3.org/2000/svg" class="transition duration-300 ease-in-out delay-150"><defs><linearGradient id="gradient" x1="0%" y1="50%" x2="100%" y2="50%"><stop offset="5%" stop-color="#131c33"></stop><stop offset="95%" stop-color="#000080"></stop></linearGradient></defs><path d="M 0,600 C 0,600 0,200 0,200 C 50.130522827687784,170.475147275405 100.26104565537557,140.95029455081 169,144 C 237.73895434462443,147.04970544919 325.0863402061855,182.67396907216497 385,194 C 444.9136597938145,205.32603092783503 477.3935935198822,192.35382916053018 532,209 C 586.6064064801178,225.64617083946982 663.3392857142858,271.91071428571433 736,274 C 808.6607142857142,276.08928571428567 877.249263622975,234.00331369661265 928,223 C 978.750736377025,211.99668630338735 1011.6636597938143,232.07603092783506 1071,222 C 1130.3363402061857,211.92396907216494 1216.0960972017676,171.69256259204712 1282,163 C 1347.9039027982324,154.30743740795288 1393.9519513991163,177.15371870397644 1440,200 C 1440,200 1440,600 1440,600 Z" stroke="none" stroke-width="0" fill="url(#gradient)" fill-opacity="0.53" class="transition-all duration-300 ease-in-out delay-150 path-0"></path><defs><linearGradient id="gradient" x1="0%" y1="50%" x2="100%" y2="50%"><stop offset="5%" stop-color="#131c33"></stop><stop offset="95%" stop-color="#000080"></stop></linearGradient></defs><path d="M 0,600 C 0,600 0,400 0,400 C 50.372422680412356,399.25036818851254 100.74484536082471,398.500736377025 165,419 C 229.2551546391753,439.499263622975 307.39304123711344,481.24742268041234 368,452 C 428.60695876288656,422.75257731958766 471.68298969072157,322.5095729013255 532,335 C 592.3170103092784,347.4904270986745 669.8750000000001,472.71428571428567 738,473 C 806.1249999999999,473.28571428571433 864.8170103092782,348.63328424153167 914,340 C 963.1829896907218,331.36671575846833 1002.8569587628867,438.75257731958766 1063,466 C 1123.1430412371133,493.24742268041234 1203.7551546391755,440.3564064801178 1270,416 C 1336.2448453608245,391.6435935198822 1388.1224226804122,395.8217967599411 1440,400 C 1440,400 1440,600 1440,600 Z" stroke="none" stroke-width="0" fill="url(#gradient)" fill-opacity="1" class="transition-all duration-300 ease-in-out delay-150 path-1"></path></svg>